<?xml version="1.0" standalone="no"?>
<svg xmlns="http://www.w3.org/2000/svg" xmlns:xlink="http://www.w3.org/1999/xlink" style="isolation:isolate" viewBox="0 0 200 200" width="200" height="200">
<defs>
<clipPath id="_clipPath_2G6dQwVWzcS17fmKIsJrXV2lTlTjFq27">
<rect width="200" height="200"/>
</clipPath>
</defs>
<g clip-path="url(#_clipPath_2G6dQwVWzcS17fmKIsJrXV2lTlTjFq27)">
<path d=" M 5 100 C 5 47.568 47.568 5 100 5 C 152.432 5 195 47.568 195 100 C 195 152.432 152.432 195 100 195 C 47.568 195 5 152.432 5 100 Z " fill="none" vector-effect="non-scaling-stroke" stroke-width="3" stroke="#e9f2f6" stroke-linejoin="miter" stroke-linecap="square" stroke-miterlimit="3"/>
<g style="isolation:isolate" id="Inside">
<clipPath id="_clipPath_FTLrhVU43OrUSjvkbrGRSTlGLh8JHTF4">
<path d=" M 0 100 C 0 44.808 44.808 0 100 0 C 155.192 0 200 44.808 200 100 C 200 155.192 155.192 200 100 200 C 44.808 200 0 155.192 0 100 Z " fill="rgb(255,255,255)"/>
</clipPath>
<g clip-path="url(#_clipPath_FTLrhVU43OrUSjvkbrGRSTlGLh8JHTF4)">
<path d=" M 100 10 C 138.634 10 171.615 34.396 184.366 68.61 L 100 100 L 100 10 Z " fill="#e9f2f6"/>
</g>
</g>
</g>
</svg>